<!-- Maymar — Noah (brand) 2026-08. Trace vectoriel, aucun bitmap.
     Lettres : Young Serif (SIL OFL 1.1), contours convertis en chemins.
     La couleur suit currentColor : une seule source pour toutes les surfaces. -->
<svg xmlns="http://www.w3.org/2000/svg" role="img" aria-label="Maymar"
     viewBox="4 -100 749.733 100" fill="currentColor">
  <title>Maymar</title>
  <path d="M122.26666666666667 -20.666666666666668Q122.26666666666667 -15.333333333333334 124.73333333333333 -11.666666666666668Q127.2 -8.0 132.13333333333333 -8.0Q134.13333333333333 -8.0 134.13333333333333 -6.0V-2.0Q134.13333333333333 0.0 132.13333333333333 0.0H99.2Q97.2 0.0 97.2 -2.0V-6.0Q97.2 -8.0 99.2 -8.0Q104.13333333333333 -8.0 106.53333333333333 -11.666666666666668Q108.93333333333334 -15.333333333333334 108.93333333333334 -20.666666666666668V-71.2L77.46666666666667 -7.466666666666667Q76.8 -6.0 75.2 -6.0H62.93333333333333Q61.333333333333336 -6.0 60.53333333333333 -7.466666666666667L29.2 -71.2V-20.666666666666668Q29.2 -15.333333333333334 31.6 -11.666666666666668Q34.0 -8.0 38.93333333333333 -8.0Q40.93333333333333 -8.0 40.93333333333333 -6.0V-2.0Q40.93333333333333 0.0 38.93333333333333 0.0H6.0Q4.0 0.0 4.0 -2.0V-6.0Q4.0 -8.0 6.0 -8.0Q10.933333333333334 -8.0 13.4 -11.666666666666668Q15.866666666666667 -15.333333333333334 15.866666666666667 -20.666666666666668V-90.0Q14.0 -91.06666666666666 11.933333333333334 -91.53333333333333Q9.866666666666667 -92.0 7.6 -92.0Q5.6 -92.0 5.6 -94.0V-98.0Q5.6 -100.0 7.6 -100.0H32.666666666666664Q34.53333333333333 -100.0 35.06666666666666 -98.8L69.06666666666666 -30.0L103.06666666666666 -98.8Q103.6 -100.0 105.46666666666667 -100.0H130.53333333333333Q132.53333333333333 -100.0 132.53333333333333 -98.0V-94.0Q132.53333333333333 -92.0 130.53333333333333 -92.0Q128.4 -92.0 126.26666666666667 -91.53333333333333Q124.13333333333333 -91.06666666666666 122.26666666666667 -90.0Z M241.6 -20.666666666666668Q243.73333333333335 -15.2 245.73333333333335 -11.6Q247.73333333333335 -8.0 251.46666666666667 -8.0Q252.8 -8.0 253.13333333333333 -7.533333333333333Q253.46666666666667 -7.066666666666666 253.46666666666667 -6.0V-2.0Q253.46666666666667 0.0 251.46666666666667 0.0H210.53333333333333Q208.53333333333333 0.0 208.53333333333333 -2.0V-6.0Q208.53333333333333 -7.066666666666666 208.86666666666667 -7.533333333333333Q209.2 -8.0 210.53333333333333 -8.0Q214.13333333333333 -8.0 217.53333333333333 -10.666666666666668Q220.93333333333334 -13.333333333333334 220.93333333333334 -17.2Q220.93333333333334 -18.133333333333333 220.73333333333335 -18.933333333333334Q220.53333333333333 -19.733333333333334 220.26666666666665 -20.666666666666668L216.13333333333333 -32.0H179.6L175.6 -20.666666666666668Q175.33333333333334 -19.733333333333334 175.2 -18.866666666666667Q175.06666666666666 -18.0 175.06666666666666 -17.333333333333332Q175.06666666666666 -13.066666666666666 178.53333333333333 -10.533333333333333Q182.0 -8.0 185.46666666666667 -8.0Q186.93333333333334 -8.0 187.2 -7.533333333333333Q187.46666666666667 -7.066666666666666 187.46666666666667 -6.0V-2.0Q187.46666666666667 0.0 185.46666666666667 0.0H152.26666666666668Q150.26666666666668 0.0 150.26666666666668 -2.0V-6.0Q150.26666666666668 -7.066666666666666 150.60000000000002 -7.533333333333333Q150.93333333333334 -8.0 152.26666666666668 -8.0Q156.26666666666668 -8.0 158.33333333333334 -11.733333333333334Q160.4 -15.466666666666667 162.26666666666668 -20.666666666666668L190.93333333333334 -98.26666666666667Q191.46666666666667 -100.0 193.2 -100.0H209.33333333333334Q211.06666666666666 -100.0 211.6 -98.4ZM183.73333333333335 -43.6H211.86666666666667L197.46666666666667 -82.53333333333333Z M368.1333333333333 -100.0Q370.1333333333333 -100.0 370.1333333333333 -98.0V-94.0Q370.1333333333333 -92.0 368.1333333333333 -92.0Q363.73333333333335 -92.0 359.53333333333336 -88.93333333333334Q355.33333333333337 -85.86666666666666 351.4666666666667 -79.2L330.93333333333334 -44.4Q330.2666666666667 -43.46666666666667 330.2666666666667 -41.86666666666667V-20.666666666666668Q330.2666666666667 -15.333333333333334 332.20000000000005 -11.666666666666668Q334.1333333333333 -8.0 339.20000000000005 -8.0H340.1333333333333Q342.1333333333333 -8.0 342.1333333333333 -6.0V-2.0Q342.1333333333333 0.0 340.1333333333333 0.0H299.0666666666667Q297.06666666666666 0.0 297.06666666666666 -2.0V-6.0Q297.06666666666666 -8.0 299.0666666666667 -8.0H299.8666666666667Q304.93333333333334 -8.0 306.93333333333334 -11.666666666666668Q308.93333333333334 -15.333333333333334 308.93333333333334 -20.666666666666668V-41.2Q308.93333333333334 -42.4 308.1333333333333 -43.6L284.1333333333333 -79.2Q279.6 -85.86666666666666 276.40000000000003 -88.93333333333334Q273.20000000000005 -92.0 268.93333333333334 -92.0Q266.93333333333334 -92.0 266.93333333333334 -94.0V-98.0Q266.93333333333334 -100.0 268.93333333333334 -100.0H315.20000000000005Q317.20000000000005 -100.0 317.20000000000005 -98.0V-94.0Q317.20000000000005 -92.0 315.20000000000005 -92.0Q311.6 -92.0 308.73333333333335 -90.6Q305.8666666666667 -89.2 305.8666666666667 -85.73333333333333Q305.8666666666667 -82.93333333333334 308.1333333333333 -79.2L323.73333333333335 -54.266666666666666L338.1333333333333 -79.2Q341.0666666666667 -84.53333333333333 341.0666666666667 -87.6Q341.0666666666667 -92.0 334.93333333333334 -92.0Q332.93333333333334 -92.0 332.93333333333334 -94.0V-98.0Q332.93333333333334 -100.0 334.93333333333334 -100.0Z M505.06666666666666 -20.666666666666668Q505.06666666666666 -15.333333333333334 507.5333333333333 -11.666666666666668Q510.0 -8.0 514.9333333333334 -8.0Q516.9333333333334 -8.0 516.9333333333334 -6.0V-2.0Q516.9333333333334 0.0 514.9333333333334 0.0H482.0Q480.0 0.0 480.0 -2.0V-6.0Q480.0 -8.0 482.0 -8.0Q486.93333333333334 -8.0 489.33333333333337 -11.666666666666668Q491.73333333333335 -15.333333333333334 491.73333333333335 -20.666666666666668V-71.2L460.26666666666665 -7.466666666666667Q459.6 -6.0 458.0 -6.0H445.73333333333335Q444.1333333333333 -6.0 443.33333333333337 -7.466666666666667L412.0 -71.2V-20.666666666666668Q412.0 -15.333333333333334 414.4 -11.666666666666668Q416.8 -8.0 421.73333333333335 -8.0Q423.73333333333335 -8.0 423.73333333333335 -6.0V-2.0Q423.73333333333335 0.0 421.73333333333335 0.0H388.8Q386.8 0.0 386.8 -2.0V-6.0Q386.8 -8.0 388.8 -8.0Q393.73333333333335 -8.0 396.20000000000005 -11.666666666666668Q398.6666666666667 -15.333333333333334 398.6666666666667 -20.666666666666668V-90.0Q396.8 -91.06666666666666 394.73333333333335 -91.53333333333333Q392.6666666666667 -92.0 390.40000000000003 -92.0Q388.40000000000003 -92.0 388.40000000000003 -94.0V-98.0Q388.40000000000003 -100.0 390.40000000000003 -100.0H415.4666666666667Q417.33333333333337 -100.0 417.8666666666667 -98.8L451.8666666666667 -30.0L485.8666666666667 -98.8Q486.4 -100.0 488.26666666666665 -100.0H513.3333333333334Q515.3333333333334 -100.0 515.3333333333334 -98.0V-94.0Q515.3333333333334 -92.0 513.3333333333334 -92.0Q511.20000000000005 -92.0 509.0666666666667 -91.53333333333333Q506.93333333333334 -91.06666666666666 505.06666666666666 -90.0Z M624.4 -20.666666666666668Q626.5333333333333 -15.2 628.5333333333333 -11.6Q630.5333333333333 -8.0 634.2666666666667 -8.0Q635.6 -8.0 635.9333333333334 -7.533333333333333Q636.2666666666667 -7.066666666666666 636.2666666666667 -6.0V-2.0Q636.2666666666667 0.0 634.2666666666667 0.0H593.3333333333333Q591.3333333333333 0.0 591.3333333333333 -2.0V-6.0Q591.3333333333333 -7.066666666666666 591.6666666666666 -7.533333333333333Q592.0 -8.0 593.3333333333333 -8.0Q596.9333333333333 -8.0 600.3333333333333 -10.666666666666668Q603.7333333333333 -13.333333333333334 603.7333333333333 -17.2Q603.7333333333333 -18.133333333333333 603.5333333333333 -18.933333333333334Q603.3333333333333 -19.733333333333334 603.0666666666666 -20.666666666666668L598.9333333333333 -32.0H562.4L558.4 -20.666666666666668Q558.1333333333333 -19.733333333333334 558.0 -18.866666666666667Q557.8666666666667 -18.0 557.8666666666667 -17.333333333333332Q557.8666666666667 -13.066666666666666 561.3333333333333 -10.533333333333333Q564.8 -8.0 568.2666666666667 -8.0Q569.7333333333333 -8.0 570.0 -7.533333333333333Q570.2666666666667 -7.066666666666666 570.2666666666667 -6.0V-2.0Q570.2666666666667 0.0 568.2666666666667 0.0H535.0666666666666Q533.0666666666666 0.0 533.0666666666666 -2.0V-6.0Q533.0666666666666 -7.066666666666666 533.4 -7.533333333333333Q533.7333333333333 -8.0 535.0666666666666 -8.0Q539.0666666666666 -8.0 541.1333333333332 -11.733333333333334Q543.1999999999999 -15.466666666666667 545.0666666666666 -20.666666666666668L573.7333333333333 -98.26666666666667Q574.2666666666667 -100.0 576.0 -100.0H592.1333333333333Q593.8666666666667 -100.0 594.4 -98.4ZM566.5333333333333 -43.6H594.6666666666666L580.2666666666667 -82.53333333333333Z M751.7333333333333 -8.0Q753.7333333333333 -8.0 753.7333333333333 -6.0V-2.0Q753.7333333333333 0.0 751.7333333333333 0.0H710.8Q708.8 0.0 708.8 -2.0V-6.0Q708.8 -8.0 710.8 -8.0H711.6Q714.9333333333333 -8.0 716.5333333333333 -9.933333333333334Q718.1333333333333 -11.866666666666667 718.1333333333333 -14.533333333333333Q718.1333333333333 -17.6 716.4 -20.666666666666668L704.2666666666667 -43.333333333333336Q700.2666666666667 -42.93333333333333 695.6 -42.93333333333333H685.6V-20.666666666666668Q685.6 -15.333333333333334 687.6 -11.666666666666668Q689.6 -8.0 694.5333333333333 -8.0H695.3333333333333Q697.3333333333333 -8.0 697.3333333333333 -6.0V-2.0Q697.3333333333333 0.0 695.3333333333333 0.0H654.4Q652.4 0.0 652.4 -2.0V-6.0Q652.4 -8.0 654.4 -8.0H655.3333333333333Q660.4 -8.0 662.3333333333333 -11.666666666666668Q664.2666666666667 -15.333333333333334 664.2666666666667 -20.666666666666668V-79.33333333333333Q664.2666666666667 -84.8 662.2 -88.4Q660.1333333333333 -92.0 654.5333333333333 -92.0Q652.5333333333333 -92.0 652.5333333333333 -94.0V-98.0Q652.5333333333333 -100.0 654.5333333333333 -100.0H703.4666666666667Q714.2666666666667 -100.0 722.2666666666667 -96.13333333333333Q730.2666666666667 -92.26666666666667 734.6666666666666 -85.86666666666667Q739.0666666666666 -79.46666666666667 739.0666666666666 -71.86666666666666Q739.0666666666666 -65.06666666666666 735.4666666666667 -58.666666666666664Q731.8666666666667 -52.266666666666666 723.1999999999999 -48.13333333333333L737.7333333333333 -20.666666666666668Q740.4 -15.733333333333333 743.2666666666667 -11.866666666666667Q746.1333333333333 -8.0 751.0666666666666 -8.0ZM693.3333333333333 -52.4Q706.6666666666666 -52.4 712.8666666666666 -57.599999999999994Q719.0666666666666 -62.8 719.0666666666666 -71.86666666666666Q719.0666666666666 -81.06666666666666 713.3333333333333 -86.53333333333333Q707.6 -92.0 697.6 -92.0H685.6V-52.4Z"/>
</svg>
